<svg xmlns="http://www.w3.org/2000/svg" viewBox="0 0 125 125">

<style>
@-webkit-keyframes wheel {
    0% {
        -webkit-transform: rotate(0deg);
    }
    100% {
        -webkit-transform: rotate(360deg);
    }
}
@keyframes wheel {
    0% {
        transform: rotate(0deg);
    }
    100% {
        transform: rotate(360deg);
    }
}
.scroll-wheel {
    transform-origin: center center;
    -webkit-animation: wheel 40s 0s linear infinite;
    animation: wheel 40s 0s linear infinite;
}
</style>

<path class="scroll-wheel" fill="none" stroke="#bfb38e" stroke-dasharray="0 8" stroke-linecap="round" stroke-width="3" d="M61.994 2.652c32.777 0 59.348 26.571 59.348 59.347s-26.571 59.346-59.348 59.346S2.647 94.775 2.647 61.999 29.218 2.652 61.994 2.652z"/>

<g stroke="#fff" stroke-width="0.8" fill="#fff" fill-rule="evenodd"><path d="m106.059 58.125-4.748.58c-1.308.16-2.43-.271-2.606-1.712-.173-1.414.813-2.103 2.12-2.263l4.749-.58c1.307-.159 2.429.272 2.602 1.686.176 1.441-.809 2.13-2.117 2.289zm1.85-2.256c-.152-1.241-1.139-1.567-2.286-1.427l-4.775.584c-1.148.14-2.028.694-1.876 1.934.153 1.254 1.142 1.594 2.29 1.454l4.775-.584c1.147-.14 2.025-.708 1.872-1.961zm-10.555-5.427-.183-.562.27-.082c.045.197.113.373.176.537.392.976 1.081 1.26 2.342.88l6.818-2.055.085.283-6.805 2.051c-1.492.45-2.296.018-2.703-1.052zm3.026-10.999-.71.461c-.969.63-1.747.592-2.469-.173.436.966.103 1.712-.764 2.276l-1.24.806c-.304.198-.665.48-.796.822l-.175-.271c.145-.318.472-.579.81-.799l1.239-.806c1.161-.755 1.011-1.651.344-2.676l-.63-.969-3.639 2.366-.161-.248 7.886-5.128 1.019 1.566c.761 1.172.367 2.069-.714 2.773zm.47-2.63-1.75-1.307-2.874 2.454.63.969c.71 1.093 1.402 1.541 2.619.749l.721-.469c.958-.622 1.313-1.382.654-2.396zm-11.9-.231c-.999-1.035-.561-2.167.367-3.064l5.095-4.92.205.213-5.104 4.929c-.813.785-1.238 1.756-.37 2.655s1.854.508 2.666-.276l5.105-4.93.196.203-5.095 4.92c-.928.897-2.076 1.295-3.065.27zm-2.203-5.252c-.757 1.079-1.829 1.625-3.019.791-1.167-.819-1.019-2.013-.263-3.092l2.749-3.921c.757-1.079 1.829-1.625 2.997-.806 1.189.834 1.042 2.028.285 3.107l-2.749 3.921zm2.309-6.808c-1.024-.718-1.928-.202-2.592.745L83.7 29.21c-.664.947-.841 1.972.183 2.691 1.035.725 1.95.217 2.614-.73l2.764-3.943c.665-.947.831-1.98-.205-2.706zm-11.292 4.15-.271-.119 1.531-3.484.25-6.015.271.119-.211 5.592 3.978-3.936.283.124-4.3 4.235-1.531 3.484zm-3.276 76.56c-1.38.353-2.147-.534-2.466-1.784l-.043-.169.286-.073.047.182c.275 1.081.912 1.89 2.097 1.587 1.198-.305 1.372-1.307 1.097-2.388-.595-2.331-4.069-1.375-4.7-3.85-.322-1.263-.057-2.398 1.336-2.754 1.381-.352 2.157.518 2.48 1.781l.113.443-.274.069-.116-.455c-.283-1.107-.935-1.87-2.133-1.564s-1.405 1.287-1.123 2.394c.588 2.305 4.058 1.337 4.7 3.85.339 1.328.011 2.383-1.301 2.731zm-6.554-88.505-.914 9.079-.294-.03.914-9.078-2.033-.205.028-.281 4.373.44-.029.281-2.045-.206zm-.447 82.568.281 4.776c.077 1.302-.396 2.407-1.819 2.491-1.435.085-2.035-.957-2.112-2.259l-.043-.724.295-.018.044.738c.067 1.141.553 2.068 1.787 1.995 1.248-.073 1.621-1.051 1.554-2.192l-.283-4.803c-.068-1.141-.552-2.055-1.8-1.981-1.235.073-1.609 1.037-1.542 2.178l.061 1.033-.295.017-.06-1.019c-.077-1.302.397-2.407 1.832-2.492 1.423-.084 2.023.958 2.1 2.26zm-6.099-74.78-.133-1.472c-.124-1.379-.986-1.666-2.204-1.556l-1.151.103.388 4.324-.294.026-.842-9.37 1.861-.167c1.392-.125 2 .643 2.116 1.928l.076.844c.103 1.151-.295 1.821-1.309 2.101 1.058.067 1.561.71 1.654 1.74l.132 1.473c.033.361.114.813.354 1.088l-.321.029c-.214-.278-.291-.689-.327-1.091zm-.474-5.274-.077-.857c-.102-1.137-.608-1.807-1.813-1.699l-1.552.14.402 4.484 1.152-.103c1.298-.117 2.018-.519 1.888-1.965zm-2.442 81.985 1.146.153.572-4.304.293.039-1.24 9.326-1.852-.246c-1.386-.184-1.811-1.068-1.641-2.347l.112-.839c.152-1.146.689-1.712 1.739-1.762-1.018-.298-1.367-1.036-1.23-2.062l.195-1.466c.047-.359.068-.818-.106-1.139l.319.043c.148.317.133.736.08 1.135l-.195 1.466c-.183 1.372.595 1.842 1.808 2.003zm-2.312 1.781-.113.852c-.151 1.133.195 1.897 1.394 2.057l1.546.206.593-4.464-1.145-.152c-1.293-.172-2.083.062-2.275 1.501zm-2.495-78.429-3.199.985.126 2.283-.257.079-.602-9.676.398-.122 4.996 8.322-.283.087-1.179-1.958zm-3.636-6.054.409 6.767 3.096-.954-3.505-5.813zm1.718 76.675c1.348.459 1.54 1.646 1.115 2.893l-1.543 4.529c-.425 1.247-1.302 2.07-2.65 1.61-1.374-.468-1.566-1.655-1.141-2.902l1.543-4.529c.425-1.247 1.302-2.069 2.676-1.601zm-3.944 6.238c-.372 1.094-.243 2.132.952 2.54 1.184.403 1.907-.345 2.28-1.439l1.552-4.554c.373-1.094.256-2.128-.927-2.531-1.196-.407-1.932.336-2.305 1.43l-1.552 4.554zm-5.542-.015 4.491-7.94-2.748-1.554.139-.246 3.005 1.7-4.63 8.185-.257-.145zm3.993-71.516-4.308-8.047-1.802.965-.133-.249 3.875-2.075.134.249-1.814.971 4.309 8.047-.261.139zm-5.418.684c.822 1.013 1.056 2.156-.062 3.062-1.107.897-2.176.432-2.997-.582l-.288-.355.219-.177.296.365c.72.888 1.632 1.308 2.593.529s.738-1.757.018-2.645c-1.498-1.849-4.246.483-5.88-1.533-.864-1.065-1.007-2.16.039-3.025 1.107-.898 2.175-.413 2.988.589l.11.136-.23.186-.119-.146c-.702-.867-1.619-1.335-2.569-.565-.961.779-.7 1.762.002 2.629 1.516 1.869 4.272-.452 5.88 1.532zM30.43 41.972l-3.983-2.653c-1.096-.731-1.667-1.789-.877-2.975.805-1.208 2.002-1.089 3.098-.359l3.982 2.653c1.097.73 1.668 1.789.863 2.997-.79 1.186-1.987 1.067-3.083.337zm2.068-3.08-4.005-2.668c-.962-.641-1.999-.783-2.699.269-.693 1.04-.156 1.931.806 2.572l4.005 2.668c.962.641 1.991.794 2.684-.247.7-1.051.171-1.953-.791-2.594zm-2.222 8.629-.114.273-8.423-3.514-.786 1.886-.261-.109 1.692-4.056.261.108-.792 1.898 8.423 3.514zm-2.496 9-9.243 2.543 8.942.803-.025.281-9.37-.841.037-.415 9.064-2.506-8.768-.787.025-.282 9.371.842-.033.362zm-.135 8.596-8.39 2.784 8.85.313.064.425-9.055 3.06-.044-.293 8.664-2.947-9.091-.29-.053-.359 8.573-2.825-9.085-.251-.04-.266 9.549.264.058.385zm-4.828 10.657 4.428-1.814c1.218-.499 2.415-.38 2.965.964.54 1.318-.228 2.243-1.447 2.742l-4.428 1.814c-1.219.499-2.415.379-2.955-.939-.55-1.343.218-2.268 1.437-2.767zm-1.188 2.665c.473 1.157 1.512 1.211 2.582.772l4.452-1.824c1.07-.438 1.772-1.205 1.298-2.361-.479-1.17-1.522-1.236-2.592-.798l-4.452 1.824c-1.07.439-1.767 1.218-1.288 2.387zm4.744 4.821 3.937-2.599c1.111-.733 2.286-.784 3.071.405l1.088 1.65-7.853 5.183-1.081-1.638c-.792-1.2-.284-2.26.838-3.001zm-.602 2.846.918 1.391 7.382-4.873-.919-1.391c-.696-1.054-1.691-.977-2.667-.333l-3.961 2.614c-.987.652-1.442 1.549-.753 2.592zm13.122 1.915.181-.217 2.659 2.208-6.014 7.244-.228-.189 5.834-7.027-2.432-2.019zm50.842 2.796 5.369 2.724-.22.197-5.001-2.512 1.931 5.252-.231.206-2.069-5.67-2.535-2.839.221-.197 2.535 2.839zm5.243-3.914-.215-.162 1.669-2.21-3.476-2.625-1.985 2.629-.225-.17 2.163-2.865 7.51 5.671-2.163 2.865-.225-.171 1.984-2.628-3.368-2.544-1.669 2.21zm-.335-8.241 9.542.96-8.054-3.975.125-.253 8.44 4.165-.185.373-9.361-.93 7.898 3.897-.125.253-8.44-4.165.16-.325zm8.952-4.586c-1.117-.299-1.609-.905-1.523-1.954-.427.972-1.205 1.223-2.205.955l-1.429-.383c-.351-.094-.803-.173-1.144-.042l.083-.312c.335-.105.748-.036 1.138.068l1.429.383c1.338.359 1.904-.353 2.221-1.535l.299-1.117-4.196-1.124.077-.286 9.094 2.437-.484 1.805c-.362 1.351-1.294 1.659-2.541 1.324l-.819-.219zm3.09-1.191.404-1.507-4.352-1.166-.299 1.117c-.338 1.26-.208 2.075 1.195 2.451l.831.223c1.105.296 1.908.051 2.221-1.118zm-7.797-8.997c.099-1.436 1.234-1.87 2.522-1.782l7.071.483-.02.295-7.085-.484c-1.127-.077-2.134.258-2.219 1.506s.866 1.718 1.993 1.795l7.085.484-.019.282-7.071-.484c-1.289-.088-2.354-.673-2.257-2.095z"/><path d="m106.059 58.125-4.748.58c-1.308.16-2.43-.271-2.606-1.712-.173-1.414.813-2.103 2.12-2.263l4.749-.58c1.307-.159 2.429.272 2.602 1.686.176 1.441-.809 2.13-2.117 2.289zm1.85-2.256c-.152-1.241-1.139-1.567-2.286-1.427l-4.775.584c-1.148.14-2.028.694-1.876 1.934.153 1.254 1.142 1.594 2.29 1.454l4.775-.584c1.147-.14 2.025-.708 1.872-1.961zm-10.555-5.427-.183-.562.27-.082c.045.197.113.373.176.537.392.976 1.081 1.26 2.342.88l6.818-2.055.085.283-6.805 2.051c-1.492.45-2.296.018-2.703-1.052zm3.026-10.999-.71.461c-.969.63-1.747.592-2.469-.173.436.966.103 1.712-.764 2.276l-1.24.806c-.304.198-.665.48-.796.822l-.175-.271c.145-.318.472-.579.81-.799l1.239-.806c1.161-.755 1.011-1.651.344-2.676l-.63-.969-3.639 2.366-.161-.248 7.886-5.128 1.019 1.566c.761 1.172.367 2.069-.714 2.773zm.47-2.63-1.75-1.307-2.874 2.454.63.969c.71 1.093 1.402 1.541 2.619.749l.721-.469c.958-.622 1.313-1.382.654-2.396zm-11.9-.231c-.999-1.035-.561-2.167.367-3.064l5.095-4.92.205.213-5.104 4.929c-.813.785-1.238 1.756-.37 2.655s1.854.508 2.666-.276l5.105-4.93.196.203-5.095 4.92c-.928.897-2.076 1.295-3.065.27zm-2.203-5.252c-.757 1.079-1.829 1.625-3.019.791-1.167-.819-1.019-2.013-.263-3.092l2.749-3.921c.757-1.079 1.829-1.625 2.997-.806 1.189.834 1.042 2.028.285 3.107l-2.749 3.921zm2.309-6.808c-1.024-.718-1.928-.202-2.592.745L83.7 29.21c-.664.947-.841 1.972.183 2.691 1.035.725 1.95.217 2.614-.73l2.764-3.943c.665-.947.831-1.98-.205-2.706zm-11.292 4.15-.271-.119 1.531-3.484.25-6.015.271.119-.211 5.592 3.978-3.936.283.124-4.3 4.235-1.531 3.484zm-3.276 76.56c-1.38.353-2.147-.534-2.466-1.784l-.043-.169.286-.073.047.182c.275 1.081.912 1.89 2.097 1.587 1.198-.305 1.372-1.307 1.097-2.388-.595-2.331-4.069-1.375-4.7-3.85-.322-1.263-.057-2.398 1.336-2.754 1.381-.352 2.157.518 2.48 1.781l.113.443-.274.069-.116-.455c-.283-1.107-.935-1.87-2.133-1.564s-1.405 1.287-1.123 2.394c.588 2.305 4.058 1.337 4.7 3.85.339 1.328.011 2.383-1.301 2.731zm-6.554-88.505-.914 9.079-.294-.03.914-9.078-2.033-.205.028-.281 4.373.44-.029.281-2.045-.206zm-.447 82.568.281 4.776c.077 1.302-.396 2.407-1.819 2.491-1.435.085-2.035-.957-2.112-2.259l-.043-.724.295-.018.044.738c.067 1.141.553 2.068 1.787 1.995 1.248-.073 1.621-1.051 1.554-2.192l-.283-4.803c-.068-1.141-.552-2.055-1.8-1.981-1.235.073-1.609 1.037-1.542 2.178l.061 1.033-.295.017-.06-1.019c-.077-1.302.397-2.407 1.832-2.492 1.423-.084 2.023.958 2.1 2.26zm-6.099-74.78-.133-1.472c-.124-1.379-.986-1.666-2.204-1.556l-1.151.103.388 4.324-.294.026-.842-9.37 1.861-.167c1.392-.125 2 .643 2.116 1.928l.076.844c.103 1.151-.295 1.821-1.309 2.101 1.058.067 1.561.71 1.654 1.74l.132 1.473c.033.361.114.813.354 1.088l-.321.029c-.214-.278-.291-.689-.327-1.091zm-.474-5.274-.077-.857c-.102-1.137-.608-1.807-1.813-1.699l-1.552.14.402 4.484 1.152-.103c1.298-.117 2.018-.519 1.888-1.965zm-2.442 81.985 1.146.153.572-4.304.293.039-1.24 9.326-1.852-.246c-1.386-.184-1.811-1.068-1.641-2.347l.112-.839c.152-1.146.689-1.712 1.739-1.762-1.018-.298-1.367-1.036-1.23-2.062l.195-1.466c.047-.359.068-.818-.106-1.139l.319.043c.148.317.133.736.08 1.135l-.195 1.466c-.183 1.372.595 1.842 1.808 2.003zm-2.312 1.781-.113.852c-.151 1.133.195 1.897 1.394 2.057l1.546.206.593-4.464-1.145-.152c-1.293-.172-2.083.062-2.275 1.501zm-2.495-78.429-3.199.985.126 2.283-.257.079-.602-9.676.398-.122 4.996 8.322-.283.087-1.179-1.958zm-3.636-6.054.409 6.767 3.096-.954-3.505-5.813zm1.718 76.675c1.348.459 1.54 1.646 1.115 2.893l-1.543 4.529c-.425 1.247-1.302 2.07-2.65 1.61-1.374-.468-1.566-1.655-1.141-2.902l1.543-4.529c.425-1.247 1.302-2.069 2.676-1.601zm-3.944 6.238c-.372 1.094-.243 2.132.952 2.54 1.184.403 1.907-.345 2.28-1.439l1.552-4.554c.373-1.094.256-2.128-.927-2.531-1.196-.407-1.932.336-2.305 1.43l-1.552 4.554zm-5.542-.015 4.491-7.94-2.748-1.554.139-.246 3.005 1.7-4.63 8.185-.257-.145zm3.993-71.516-4.308-8.047-1.802.965-.133-.249 3.875-2.075.134.249-1.814.971 4.309 8.047-.261.139zm-5.418.684c.822 1.013 1.056 2.156-.062 3.062-1.107.897-2.176.432-2.997-.582l-.288-.355.219-.177.296.365c.72.888 1.632 1.308 2.593.529s.738-1.757.018-2.645c-1.498-1.849-4.246.483-5.88-1.533-.864-1.065-1.007-2.16.039-3.025 1.107-.898 2.175-.413 2.988.589l.11.136-.23.186-.119-.146c-.702-.867-1.619-1.335-2.569-.565-.961.779-.7 1.762.002 2.629 1.516 1.869 4.272-.452 5.88 1.532zM30.43 41.972l-3.983-2.653c-1.096-.731-1.667-1.789-.877-2.975.805-1.208 2.002-1.089 3.098-.359l3.982 2.653c1.097.73 1.668 1.789.863 2.997-.79 1.186-1.987 1.067-3.083.337zm2.068-3.08-4.005-2.668c-.962-.641-1.999-.783-2.699.269-.693 1.04-.156 1.931.806 2.572l4.005 2.668c.962.641 1.991.794 2.684-.247.7-1.051.171-1.953-.791-2.594zm-2.222 8.629-.114.273-8.423-3.514-.786 1.886-.261-.109 1.692-4.056.261.108-.792 1.898 8.423 3.514zm-2.496 9-9.243 2.543 8.942.803-.025.281-9.37-.841.037-.415 9.064-2.506-8.768-.787.025-.282 9.371.842-.033.362zm-.135 8.596-8.39 2.784 8.85.313.064.425-9.055 3.06-.044-.293 8.664-2.947-9.091-.29-.053-.359 8.573-2.825-9.085-.251-.04-.266 9.549.264.058.385zm-4.828 10.657 4.428-1.814c1.218-.499 2.415-.38 2.965.964.54 1.318-.228 2.243-1.447 2.742l-4.428 1.814c-1.219.499-2.415.379-2.955-.939-.55-1.343.218-2.268 1.437-2.767zm-1.188 2.665c.473 1.157 1.512 1.211 2.582.772l4.452-1.824c1.07-.438 1.772-1.205 1.298-2.361-.479-1.17-1.522-1.236-2.592-.798l-4.452 1.824c-1.07.439-1.767 1.218-1.288 2.387zm4.744 4.821 3.937-2.599c1.111-.733 2.286-.784 3.071.405l1.088 1.65-7.853 5.183-1.081-1.638c-.792-1.2-.284-2.26.838-3.001zm-.602 2.846.918 1.391 7.382-4.873-.919-1.391c-.696-1.054-1.691-.977-2.667-.333l-3.961 2.614c-.987.652-1.442 1.549-.753 2.592zm13.122 1.915.181-.217 2.659 2.208-6.014 7.244-.228-.189 5.834-7.027-2.432-2.019zm50.842 2.796 5.369 2.724-.22.197-5.001-2.512 1.931 5.252-.231.206-2.069-5.67-2.535-2.839.221-.197 2.535 2.839zm5.243-3.914-.215-.162 1.669-2.21-3.476-2.625-1.985 2.629-.225-.17 2.163-2.865 7.51 5.671-2.163 2.865-.225-.171 1.984-2.628-3.368-2.544-1.669 2.21zm-.335-8.241 9.542.96-8.054-3.975.125-.253 8.44 4.165-.185.373-9.361-.93 7.898 3.897-.125.253-8.44-4.165.16-.325zm8.952-4.586c-1.117-.299-1.609-.905-1.523-1.954-.427.972-1.205 1.223-2.205.955l-1.429-.383c-.351-.094-.803-.173-1.144-.042l.083-.312c.335-.105.748-.036 1.138.068l1.429.383c1.338.359 1.904-.353 2.221-1.535l.299-1.117-4.196-1.124.077-.286 9.094 2.437-.484 1.805c-.362 1.351-1.294 1.659-2.541 1.324l-.819-.219zm3.09-1.191.404-1.507-4.352-1.166-.299 1.117c-.338 1.26-.208 2.075 1.195 2.451l.831.223c1.105.296 1.908.051 2.221-1.118zm-7.797-8.997c.099-1.436 1.234-1.87 2.522-1.782l7.071.483-.02.295-7.085-.484c-1.127-.077-2.134.258-2.219 1.506s.866 1.718 1.993 1.795l7.085.484-.019.282-7.071-.484c-1.289-.088-2.354-.673-2.257-2.095zm-50.202-3.955.012.009-.002-.002-.01-.007m9.787-15.061-.047.008-.467.181-.016-.002-.019.003-.259-.071-.228.01-.19-.066-.055-.008-.054.008-.047.022-.131.089-.14.039-.077-.002-.359-.142-.218-.006-.268.087-.869.004-.169.03-.115.054-.156.136-.083.05-.114.037-.211-.004-.045.008-.053.02-.304.201-.043.012-1.031-.038-.254-.107-.152-.138-.081-.034-.078-.01-.055.006-.082.034-.046.042-.333.546-.076.081-.983.507-.151.146-.373.707-.142.477-.263.337-.7.456-.436.07-.127.049-.042.032-.491.6-.24.162-.471.711-.355.35-.305.62-.041.041-.19.092-.071.057-.055.102-.041.189.001.329.026.108.114.195.019.064-.008.147-.122.473.04.347-.285 1.092-.216.411-.156.145-.013.036.002.051.146.277.116.061.034.004-.025.055-.009.196-.002.011-.073.027-.065.05-.047.073-.017.091.02.116.025.062.054.068.032.026.046.022.131.032.015.008.005.006.006.009.001.004v.007l-.002.002-.004.005-.182.12-.021.082.005.025.009.021.025.033.04.023.04.008.369-.014.072.018.023.013.002.002.002.004.004.014v.006l-.007.023-.104.16-.004.082.035.071.022.02.153.063.041.041.007.011.059.189.025.035.042.037.247.121.126.136.124.329.016.022.028.003.031.056.016.051-.023.304.038.106.102.116.109.079.063.167.043.048.252.134.19.179.238.146.579.589.516.37.528.064 1.078-.337.667.055-.021-.002.03.004-.012-.002.013.002-.008-.001.417.089.068.049.213.068.07-.009.503-.246.884-.221.173-.087.004-.009.166-.092.108-.031.978-.051.084.02.643.498.003.005.006.024-.006.279.013.058.037.059.051.038.087.037.133.03.131-.023.089-.075.088-.156.008-.007.002-.002h.019l.024.007.199.141.009.003.026.049.078.021.063.003.123-.017.061-.028.055-.042.027-.033.021-.049.262.111.115.139.088.045.203.026.003.002.001.003.011.046.019.421-.333 1.716-.101.225v.076l.056.124.156.161.018.03.01.102.057.152.208.172.01.017.017.07.072.128.806.87.074.124.207.683.264.406.163.515.001.077-.009.03-.02.035-.072.086-.014.049v.066l.025.134.313.519.023.084-.052.478.015.04-.537.698-.116.251-.19.949.042 1.121 1.146 1.951.581 2.43.671.95.291.66.133.17.027.011.052.162-.004.176-.101.332-.003.067.262.49.407.284.101.04.075-.005.225-.14.038-.012.31.056.118-.007.397-.156.231.018.223-.049.371.047.333-.033.219-.106.145-.039.371-.028 1.08-.763 1.004-1.065.115-.175.025-.014.094-.091.161-.093.156-.143.052-.094.249-.785-.005-.072-.078-.229v-.02l.009-.031.029-.047.049-.055.019-.011.25-.05.143-.062.502-.344.146-.063.087-.07.025-.033.025-.052.103-1.089-.065-.304-.152-.254-.019-.071.017-.279-.009-.049-.067-.102-.002-.007h.004l.136.047.102.004.108-.06.993-.88 1.078-.526.423-.43.046-.068.031-.018-.001.001.007-.009.101-.216.014-.063.003-2.159-.049-.127-.116-.104-.203-.108-.026-.026-.017-.027-.092-.896.068-.413-.006-.046-.171-.314-.027-.098.004-.117.107-.419.431-.704.079-.077.019-.046.034-.261.01-.019.01-.009.08-.038.053-.041.123-.241.022-.023.014-.009.017-.005.123-.011.042-.016.054-.033 1.578-1.831.501-.299 1.187-1.496.149-.312.045-.19.01-.005.036-.046.024-.117.054-.103.001-.046.486-.998.236-1.408-.011-.132-.02-.053-.034-.045-.091-.045-.111.004-.092.055-.047.054-.2.103-.12.124-.039.023-.584.114-.231-.016-.075.017-.08.041-.209.181-.07.04-.067.018h-.048l-.122-.035-.156-.082-.093-.016-.089.016-.08.035-.252.211-.046.011-.214-.018-.138-.054-.411-.375-.102-.008-.105.056-.049.012-.012.001.002-.009.019-.032.067-.063.237-.146.037-.05.002-.059-.074-.142-.193-.175.005.004-.193-.196-.005-.001-.532-.59-.48-.157-.09-.05-.1-.093-.063-.037-.049-.009-.055.004-.034.021-.201-.401-.003-.006.002.004-.002-.006-.234-.683-.152-.208-.558-.459-.059-.109-.084-.283.015-.01.014-.025-.001-.035-.308-.901.001-.058-.088-.125-.222-.211-.117-.077-.144-.15-.079-.128-.107-.345-1.589-2.467.02-.188-.013-.071-.072-.186.477.888.304.311.059.025h.047l.036-.015.054-.051.066-.105.02-.064.053-.544-.034-.198-.344-.662-.015-.018-.051-.033-.033-.004-.311.106h-.418l-.052-.01-.034.002-.154-.082-.206-.042-.317.041-.181.07-.183.169-.074.047-.06.019-1.08-.245-.482-.018-.103-.024-.037-.023-.146-.135-.197-.08-.529-.085-.038-.023-.11-.122-.083-.057-.106-.032-.107-.004-.746.187-.099.063-.066.068-.073.129-.011.053.037.359-.014.053-.015.026-.254.172-.038.01-.186-.023-.679-.327-.576-.085-.076-.049-.063-.061-.037-.063-.088-.258-.042-.05-.123-.06-.54-.13-.112-.055-.079-.011-.263.031-.405-.143-.013-.008-.013-.013-.044-.114-.021-.029-.034-.021-.08.005-.105.053-.019.005h-.003l-.048-.065-.039-.036-.094-.052-.023-.022-.01-.017-.004-.013.001-.016.019-.064.418-.526.021-.065.006-.079-.012-.057-.017-.041-.033-.044-.126-.099-.013-.022-.005-.017v-.012l.003-.013.017-.028.164-.147.069-.114.007-.025-.001-.041-.008-.019-.011-.015-.032-.022-.124.018-.088.059-.008-.042-.008-.022-.017-.025-.043-.027-.072-.017-.006-.003-.002-.002-.019-.046-.021-.031-.021-.018-.036-.014-.021-.002"/></g></svg>